<svg width="19" height="19" viewBox="0 0 19 19" fill="none" xmlns="http://www.w3.org/2000/svg">
<path d="M18.0161 10.3168C17.9387 10.3168 17.8621 10.2987 17.7914 10.2636L13.0793 7.90315C12.9827 7.85457 12.9006 7.7758 12.8431 7.6763C12.7856 7.5768 12.7549 7.46082 12.7549 7.34232C12.7549 7.22381 12.7856 7.10783 12.8431 7.00833C12.9006 6.90884 12.9827 6.83006 13.0793 6.78148L17.7914 4.42924C17.9244 4.36319 18.0754 4.35875 18.2113 4.4169C18.3473 4.47505 18.4571 4.59106 18.5167 4.73954C18.5757 4.88843 18.5796 5.05741 18.5275 5.20948C18.4753 5.36155 18.3715 5.48432 18.2386 5.55091L14.6485 7.34313L18.2393 9.14191C18.3542 9.19917 18.4479 9.29879 18.505 9.42411C18.562 9.54943 18.5789 9.69285 18.5527 9.83041C18.5266 9.96796 18.4591 10.0913 18.3614 10.1798C18.2637 10.2684 18.1418 10.3167 18.0161 10.3168Z" fill="#898989"/>
<path d="M11.5942 18.88C6.4137 18.88 1.88457 14.9681 0.582483 9.36628C0.545794 9.20874 0.566554 9.04136 0.640195 8.90094C0.713836 8.76052 0.834326 8.65858 0.975158 8.61754C1.11599 8.5765 1.26563 8.59973 1.39116 8.6821C1.51668 8.76448 1.60781 8.89926 1.6445 9.0568C2.2189 11.5191 3.5073 13.6987 5.30784 15.2541C7.10837 16.8095 9.31931 17.6529 11.5942 17.6519C11.7398 17.6519 11.8795 17.7166 11.9824 17.8318C12.0853 17.9469 12.1432 18.1031 12.1432 18.266C12.1432 18.4289 12.0853 18.585 11.9824 18.7002C11.8795 18.8154 11.7398 18.88 11.5942 18.88Z" fill="#898989"/>
<path d="M9.70296 13.7809C9.55737 13.7809 9.41775 13.7162 9.3148 13.601C9.21186 13.4859 9.15402 13.3297 9.15402 13.1668V1.49406C9.15402 1.3312 9.21186 1.17502 9.3148 1.05986C9.41775 0.9447 9.55737 0.880005 9.70296 0.880005C9.84855 0.880005 9.98818 0.9447 10.0911 1.05986C10.1941 1.17502 10.2519 1.3312 10.2519 1.49406V13.1668C10.2519 13.3297 10.1941 13.4859 10.0911 13.601C9.98818 13.7162 9.84855 13.7809 9.70296 13.7809Z" fill="#898989"/>
</svg>
