<svg width="19" height="19" viewBox="0 0 19 19" fill="none" xmlns="http://www.w3.org/2000/svg">
<path d="M9.56363 0.880005C4.59451 0.880005 0.564758 5.01151 0.564758 10.1081C0.564758 14.1845 3.14326 17.6427 6.72076 18.864C7.17076 18.949 7.33501 18.6641 7.33501 18.4194C7.33501 18.1999 7.32713 17.6197 7.32263 16.8499C4.81951 17.4072 4.29076 15.6126 4.29076 15.6126C3.88238 14.5464 3.29176 14.2626 3.29176 14.2626C2.47388 13.6904 3.35251 13.7019 3.35251 13.7019C4.25588 13.7674 4.73063 14.6532 4.73063 14.6532C5.53388 16.0629 6.83776 15.6562 7.35076 15.4195C7.43176 14.8233 7.66463 14.4165 7.92226 14.1856C5.92426 13.9524 3.82276 13.1608 3.82276 9.62556C3.82276 8.61796 4.17376 7.79419 4.74976 7.1485C4.65638 6.91527 4.34813 5.9766 4.83751 4.70705C4.83751 4.70705 5.59351 4.45888 7.31251 5.65261C8.03026 5.4481 8.79976 5.34585 9.56588 5.3424C10.3298 5.34699 11.1004 5.4481 11.8193 5.65376C13.5371 4.46003 14.292 4.7082 14.292 4.7082C14.7825 5.9789 14.4743 6.91641 14.382 7.14964C14.9591 7.79534 15.3068 8.61911 15.3068 9.62671C15.3068 13.1711 13.203 13.9512 11.1983 14.1799C11.5211 14.4648 11.8091 15.0278 11.8091 15.8883C11.8091 17.1222 11.7979 18.1172 11.7979 18.4194C11.7979 18.6664 11.9599 18.9536 12.4166 18.8629C15.9885 17.6404 18.5648 14.1833 18.5648 10.1081C18.5648 5.01151 14.535 0.880005 9.56363 0.880005Z" fill="#898989"/>
</svg>
