<svg width="121" height="120" viewBox="0 0 121 120" fill="none" xmlns="http://www.w3.org/2000/svg">
<rect x="0.5" width="120" height="120" rx="60" fill="#1A1A1A" fill-opacity="0.15"/>
<g clip-path="url(#clip0_48_187)">
<path d="M33.0062 62.5723L28.0342 67.5442C26.6615 68.9168 26.6615 71.1429 28.0342 72.5161C29.4075 73.8889 31.6334 73.8889 33.0061 72.5161L37.9779 67.5442C39.3514 66.1709 39.3514 63.945 37.9779 62.5723C36.6053 61.1989 34.3797 61.1989 33.0062 62.5723ZM49.5789 79.1453L44.607 84.1172C43.2343 85.4898 43.2343 87.7156 44.607 89.0884C45.9797 90.4618 48.2056 90.4618 49.5789 89.0884L54.5508 84.1172C55.9236 82.7437 55.9236 80.5179 54.5508 79.1453C53.1776 77.7718 50.9523 77.7718 49.5789 79.1453ZM61.18 94.0603L62.837 92.4033C64.2104 91.0298 64.2104 88.804 62.837 87.4314C61.4643 86.0586 59.2384 86.0586 57.8651 87.4314L56.2079 89.0884C54.8353 90.4618 54.8353 92.6876 56.2079 94.0603C57.5806 95.4337 59.8073 95.4337 61.18 94.0603ZM44.607 67.5442L36.3209 75.8304C34.9475 77.2037 34.9475 79.4297 36.3209 80.8023C37.6936 82.175 39.9195 82.175 41.2922 80.8023L49.5789 72.5162C50.9517 71.1428 50.9517 68.9168 49.5789 67.5443C48.2056 66.1709 45.9804 66.1709 44.607 67.5443V67.5442Z" fill="url(#paint0_linear_48_187)"/>
<path d="M50.4072 31.9125L44.3884 25.8305C43.473 24.9149 41.9892 24.9149 41.0737 25.8305L21.1867 45.7175C20.2711 46.6332 20.2711 48.1168 21.1867 49.0324L25.2497 53.1583C26.5359 54.4449 27.5051 56.0132 28.0806 57.739L28.863 60.0865L29.6919 59.2575C32.8902 56.0599 38.0945 56.0599 41.2928 59.2575C42.3061 60.2713 42.9616 61.495 43.3327 62.7841C46.4211 61.1857 50.3072 61.6429 52.8938 64.2294C55.4805 66.8161 55.9375 70.7022 54.3391 73.7913C55.6281 74.1624 56.8519 74.8166 57.8656 75.8304C59.4892 77.454 60.2797 79.595 60.2547 81.7277C62.3878 81.7032 64.5283 82.4936 66.1519 84.1172L69.4667 87.4313C70.8394 88.8047 73.0653 88.8047 74.438 87.4313C75.8114 86.0586 75.8114 83.8329 74.438 82.4594L68.6378 76.6594C67.7222 75.7438 67.7222 74.2601 68.6378 73.3444C69.5534 72.4296 71.0372 72.4296 71.952 73.3444L77.7528 79.1452C79.1255 80.518 81.352 80.518 82.7247 79.1452C84.0973 77.7725 84.0973 75.546 82.7247 74.1733L76.9239 68.3726C76.0091 67.4577 76.0091 65.974 76.9239 65.0585C77.8395 64.1429 79.3239 64.1429 80.2388 65.0585L86.0395 70.8585C87.4122 72.2311 89.6381 72.2311 91.0114 70.8585C92.3842 69.4858 92.3842 67.2599 91.0114 65.8872L76.7567 51.6325C72.2089 54.6396 66.0103 54.1441 62.0088 50.1425C61.0945 49.2283 59.6087 49.2283 58.6947 50.1425C54.1255 54.7116 46.6908 54.7116 42.1217 50.1425C39.38 47.4015 39.38 42.9404 42.1217 40.1993L50.4072 31.9125Z" fill="url(#paint1_linear_48_187)"/>
<path d="M79.9263 25.5961C79.0106 24.6805 77.527 24.6805 76.6114 25.5961L71.6542 30.5532C70.784 31.4235 69.6037 31.9125 68.373 31.9125H59.9489C58.0843 31.9126 56.296 32.6534 54.9775 33.9719L45.436 43.5135C44.5075 44.4419 44.5075 45.9 45.436 46.8283C48.1867 49.5793 52.6283 49.5793 55.3792 46.8283C57.8585 44.3491 61.7433 44.1118 64.4917 46.1161C68.188 48.8125 73.1172 48.9774 76.3527 45.7419L76.9239 45.1707L93.0494 61.2961C93.2728 60.4704 93.2771 59.5963 93.0586 58.7852C92.6796 57.3796 93.2295 55.3818 94.2592 54.3522L99.8133 48.798C100.729 47.8824 100.729 46.3986 99.8133 45.4838L79.9263 25.5961Z" fill="url(#paint2_linear_48_187)"/>
</g>
<defs>
<linearGradient id="paint0_linear_48_187" x1="27.0047" y1="62.2804" x2="69.6431" y2="80.7566" gradientUnits="userSpaceOnUse">
<stop stop-color="#444348"/>
<stop offset="0.089143" stop-color="#3A393D"/>
<stop offset="0.370724" stop-color="#2F2F31"/>
<stop offset="0.932011" stop-color="#1A1A1A"/>
</linearGradient>
<linearGradient id="paint1_linear_48_187" x1="20.5" y1="26.5369" x2="102.507" y2="63.0778" gradientUnits="userSpaceOnUse">
<stop stop-color="#444348"/>
<stop offset="0.089143" stop-color="#3A393D"/>
<stop offset="0.370724" stop-color="#2F2F31"/>
<stop offset="0.932011" stop-color="#1A1A1A"/>
</linearGradient>
<linearGradient id="paint2_linear_48_187" x1="44.7396" y1="25.71" x2="100.854" y2="59.6219" gradientUnits="userSpaceOnUse">
<stop stop-color="#444348"/>
<stop offset="0.089143" stop-color="#3A393D"/>
<stop offset="0.370724" stop-color="#2F2F31"/>
<stop offset="0.932011" stop-color="#1A1A1A"/>
</linearGradient>
<clipPath id="clip0_48_187">
<rect width="80" height="70.181" fill="white" transform="translate(20.5 24.9094)"/>
</clipPath>
</defs>
</svg>
