<svg width="23" height="18" viewBox="0 0 23 18" fill="none" xmlns="http://www.w3.org/2000/svg">
<path fill-rule="evenodd" clip-rule="evenodd" d="M21.1975 12.8335C21.1975 14.8601 19.5489 16.5062 17.5248 16.5062H5.47525C3.45114 16.5062 1.8025 14.8601 1.8025 12.8335V5.16649C1.80205 4.5133 1.97704 3.87198 2.30917 3.30954L8.18861 9.18897C9.06822 10.0712 10.2461 10.5573 11.5013 10.5573C12.7538 10.5573 13.9317 10.0712 14.8113 9.18897L20.6908 3.30954C21.0229 3.87197 21.1979 4.5133 21.1975 5.16649V12.8335H21.1975ZM17.5248 1.49378H5.47525C4.63938 1.49378 3.86777 1.77668 3.25052 2.24735L9.18911 8.18852C9.80383 8.80061 10.6242 9.14013 11.5013 9.14013C12.3757 9.14013 13.1962 8.80061 13.8108 8.18852L19.7494 2.24735C19.1322 1.77668 18.3607 1.49378 17.5248 1.49378ZM17.5248 0.0766602H5.47525C2.66927 0.0766602 0.385376 2.36055 0.385376 5.16654V12.8335C0.385376 15.6421 2.66927 17.9234 5.47525 17.9234H17.5248C20.3307 17.9234 22.6146 15.6421 22.6146 12.8335V5.16649C22.6146 2.3605 20.3307 0.0766602 17.5248 0.0766602Z" fill="#FCFBFC"/>
</svg>
