<svg width="22" height="22" viewBox="0 0 22 22" fill="none" xmlns="http://www.w3.org/2000/svg">
<path d="M15.8889 22H3.66671C2.68724 22 1.76648 21.6186 1.07397 20.926C0.381455 20.2335 6.10352e-05 19.3126 6.10352e-05 18.3333V6.1111C6.10352e-05 5.13168 0.381498 4.21092 1.07401 3.51841C1.76652 2.8259 2.68728 2.44446 3.66675 2.44446H8.55562C9.23067 2.44446 9.77785 2.99164 9.77785 3.66669C9.77785 4.34174 9.23067 4.88892 8.55562 4.88892H3.66671C3.34022 4.88892 3.03333 5.01606 2.80252 5.24687C2.57171 5.47768 2.44452 5.78462 2.44452 6.1111V18.3333C2.44452 18.6598 2.57167 18.9667 2.80252 19.1976C3.03333 19.4284 3.34022 19.5555 3.66671 19.5555H15.8889C16.2154 19.5555 16.5223 19.4284 16.7531 19.1975C16.9839 18.9667 17.1111 18.6598 17.1111 18.3333V13.4444C17.1111 12.7694 17.6583 12.2223 18.3333 12.2223C19.0084 12.2223 19.5556 12.7694 19.5556 13.4444V18.3333C19.5556 19.3127 19.1742 20.2335 18.4816 20.9261C17.7891 21.6186 16.8682 22 15.8889 22ZM8.55562 14.6666C8.2428 14.6666 7.93001 14.5473 7.69139 14.3087C7.2141 13.8314 7.2141 13.0575 7.69139 12.5802L17.8271 2.44446H13.4445C12.7694 2.44446 12.2223 1.89728 12.2223 1.22223C12.2223 0.54718 12.7694 8.07176e-07 13.4445 8.07176e-07H20.7778C21.097 -0.000366268 21.4035 0.12448 21.6316 0.347709L21.6317 0.347794L21.6341 0.350185L21.6348 0.350868L21.6367 0.352747L21.6379 0.353985L21.6393 0.355351L21.6419 0.357998L21.6446 0.360645L21.6459 0.362012L21.6471 0.36325C21.6481 0.364058 21.6489 0.364928 21.6497 0.365854L21.6521 0.368288L21.6522 0.368373C21.8754 0.596484 22.0002 0.903038 21.9999 1.22219V8.55552C21.9999 9.23057 21.4527 9.77775 20.7776 9.77775C20.1026 9.77775 19.5554 9.23057 19.5554 8.55552V4.17297L9.41964 14.3087C9.18119 14.5474 8.86841 14.6666 8.55562 14.6666Z" fill="#FCFBFC" fill-opacity="0.75"/>
</svg>
