<svg width="26" height="23" viewBox="0 0 26 23" fill="none" xmlns="http://www.w3.org/2000/svg">
<path d="M24.408 11.7759C24.3022 11.776 24.1976 11.7538 24.101 11.7109L17.663 8.82794C17.5309 8.76861 17.4189 8.67239 17.3403 8.55086C17.2616 8.42934 17.2198 8.28768 17.2198 8.14294C17.2198 7.9982 17.2616 7.85655 17.3403 7.73502C17.4189 7.61349 17.5309 7.51728 17.663 7.45794L24.101 4.58494C24.2827 4.50427 24.489 4.49885 24.6747 4.56988C24.8604 4.6409 25.0104 4.78259 25.092 4.96394C25.1726 5.1458 25.1778 5.35219 25.1066 5.53792C25.0354 5.72366 24.8935 5.87361 24.712 5.95494L19.807 8.14394L24.713 10.3409C24.8698 10.4109 24.998 10.5326 25.0759 10.6856C25.1538 10.8387 25.1769 11.0139 25.1412 11.1819C25.1055 11.3499 25.0132 11.5005 24.8797 11.6087C24.7463 11.7168 24.5797 11.7758 24.408 11.7759Z" fill="#FCFBFC" fill-opacity="0.75"/>
<path d="M15.634 22.235C8.55597 22.235 2.36797 17.457 0.588974 10.615C0.538849 10.4226 0.567212 10.2181 0.667825 10.0466C0.768439 9.87512 0.93306 9.75061 1.12547 9.70049C1.31789 9.65036 1.52234 9.67872 1.69384 9.77934C1.86534 9.87995 1.98985 10.0446 2.03997 10.237C2.82476 13.2444 4.58506 15.9066 7.04507 17.8063C9.50508 19.7061 12.5258 20.7361 15.634 20.735C15.8329 20.735 16.0237 20.814 16.1643 20.9547C16.305 21.0953 16.384 21.2861 16.384 21.485C16.384 21.6839 16.305 21.8747 16.1643 22.0153C16.0237 22.156 15.8329 22.235 15.634 22.235Z" fill="#FCFBFC" fill-opacity="0.75"/>
<path d="M13.05 16.007C12.8511 16.007 12.6603 15.928 12.5197 15.7873C12.379 15.6467 12.3 15.4559 12.3 15.257V1C12.3 0.801088 12.379 0.610322 12.5197 0.46967C12.6603 0.329018 12.8511 0.25 13.05 0.25C13.2489 0.25 13.4397 0.329018 13.5803 0.46967C13.721 0.610322 13.8 0.801088 13.8 1V15.257C13.8 15.4559 13.721 15.6467 13.5803 15.7873C13.4397 15.928 13.2489 16.007 13.05 16.007Z" fill="#FCFBFC" fill-opacity="0.75"/>
</svg>
