<svg width="25" height="23" viewBox="0 0 25 23" fill="none" xmlns="http://www.w3.org/2000/svg">
<path d="M24.1116 11.7759C24.0058 11.776 23.9012 11.7538 23.8046 11.7109L17.3666 8.82794C17.2346 8.76861 17.1225 8.67239 17.0439 8.55086C16.9653 8.42934 16.9234 8.28768 16.9234 8.14294C16.9234 7.9982 16.9653 7.85655 17.0439 7.73502C17.1225 7.61349 17.2346 7.51728 17.3666 7.45794L23.8046 4.58494C23.9863 4.50427 24.1926 4.49885 24.3783 4.56988C24.564 4.6409 24.7141 4.78259 24.7956 4.96394C24.8762 5.1458 24.8815 5.35219 24.8102 5.53792C24.739 5.72366 24.5971 5.87361 24.4156 5.95494L19.5106 8.14394L24.4166 10.3409C24.5735 10.4109 24.7016 10.5326 24.7795 10.6856C24.8574 10.8387 24.8805 11.0139 24.8448 11.1819C24.8091 11.3499 24.7168 11.5005 24.5833 11.6087C24.4499 11.7168 24.2833 11.7758 24.1116 11.7759Z" fill="#898989"/>
<path d="M15.3376 22.235C8.25959 22.235 2.07159 17.457 0.292588 10.615C0.242462 10.4226 0.270825 10.2181 0.371439 10.0466C0.472052 9.87512 0.636673 9.75061 0.829088 9.70049C1.0215 9.65036 1.22595 9.67872 1.39745 9.77934C1.56895 9.87995 1.69346 10.0446 1.74359 10.237C2.52838 13.2444 4.28867 15.9066 6.74868 17.8063C9.20869 19.7061 12.2294 20.7361 15.3376 20.735C15.5365 20.735 15.7273 20.814 15.8679 20.9547C16.0086 21.0953 16.0876 21.2861 16.0876 21.485C16.0876 21.6839 16.0086 21.8747 15.8679 22.0153C15.7273 22.156 15.5365 22.235 15.3376 22.235Z" fill="#898989"/>
<path d="M12.7536 16.007C12.5547 16.007 12.3639 15.928 12.2233 15.7873C12.0826 15.6467 12.0036 15.4559 12.0036 15.257V1C12.0036 0.801088 12.0826 0.610322 12.2233 0.46967C12.3639 0.329018 12.5547 0.25 12.7536 0.25C12.9525 0.25 13.1433 0.329018 13.2839 0.46967C13.4246 0.610322 13.5036 0.801088 13.5036 1V15.257C13.5036 15.4559 13.4246 15.6467 13.2839 15.7873C13.1433 15.928 12.9525 16.007 12.7536 16.007Z" fill="#898989"/>
</svg>
