<svg width="25" height="24" viewBox="0 0 25 24" fill="none" xmlns="http://www.w3.org/2000/svg">
<path d="M12.9705 0.25C6.34495 0.25 0.971954 5.644 0.971954 12.298C0.971954 17.62 4.40995 22.135 9.17995 23.7295C9.77995 23.8405 9.99895 23.4685 9.99895 23.149C9.99895 22.8625 9.98845 22.105 9.98245 21.1C6.64495 21.8275 5.93995 19.4845 5.93995 19.4845C5.39545 18.0925 4.60795 17.722 4.60795 17.722C3.51745 16.975 4.68895 16.99 4.68895 16.99C5.89345 17.0755 6.52645 18.232 6.52645 18.232C7.59745 20.0725 9.33595 19.5415 10.02 19.2325C10.128 18.454 10.4385 17.923 10.782 17.6215C8.11795 17.317 5.31595 16.2835 5.31595 11.668C5.31595 10.3525 5.78395 9.277 6.55195 8.434C6.42745 8.1295 6.01645 6.904 6.66895 5.2465C6.66895 5.2465 7.67695 4.9225 9.96895 6.481C10.926 6.214 11.952 6.0805 12.9735 6.076C13.992 6.082 15.0195 6.214 15.978 6.4825C18.2685 4.924 19.275 5.248 19.275 5.248C19.929 6.907 19.518 8.131 19.395 8.4355C20.1645 9.2785 20.628 10.354 20.628 11.6695C20.628 16.297 17.823 17.3155 15.15 17.614C15.5805 17.986 15.9645 18.721 15.9645 19.8445C15.9645 21.4555 15.9495 22.7545 15.9495 23.149C15.9495 23.4715 16.1655 23.8465 16.7745 23.728C21.537 22.132 24.972 17.6185 24.972 12.298C24.972 5.644 19.599 0.25 12.9705 0.25Z" fill="#FCFBFC" fill-opacity="0.75"/>
</svg>
