<svg width="24" height="24" viewBox="0 0 24 24" fill="none" xmlns="http://www.w3.org/2000/svg">
<path d="M18 0H6C2.70029 0 0 2.70023 0 5.99985V18.0001C0 21.2989 2.70029 24 6 24H18C21.2997 24 24 21.2989 24 18.0001V5.99985C24 2.70023 21.2997 0 18 0ZM21.9999 18.0001C21.9999 20.2051 20.2062 22 18 22H6C3.79471 22 2.0001 20.2051 2.0001 18.0001V5.99985C2.0001 3.79432 3.79471 2.00005 6 2.00005H18C20.2062 2.00005 21.9999 3.79432 21.9999 5.99985V18.0001Z" fill="#898989"/>
<path d="M18.501 6.99971C19.3294 6.99971 20.001 6.32816 20.001 5.49975C20.001 4.67134 19.3294 3.99979 18.501 3.99979C17.6725 3.99979 17.001 4.67134 17.001 5.49975C17.001 6.32816 17.6725 6.99971 18.501 6.99971Z" fill="#898989"/>
<path d="M12 5.99985C8.68559 5.99985 6 8.68566 6 11.9997C6 15.3125 8.68559 18.0001 12 18.0001C15.3135 18.0001 18 15.3125 18 11.9997C18 8.68566 15.3135 5.99985 12 5.99985ZM12 16.0001C9.79107 16.0001 8.0001 14.2092 8.0001 11.9997C8.0001 9.79024 9.79107 7.9999 12 7.9999C14.2089 7.9999 15.9999 9.79024 15.9999 11.9997C15.9999 14.2092 14.2089 16.0001 12 16.0001Z" fill="#898989"/>
</svg>
